<svg xmlns="http://www.w3.org/2000/svg" width="12" height="12" fill="none"><path fill="#171A1F" d="M7.44 11.28a.48.48 0 0 1-.48.48H5.04a.48.48 0 0 1 0-.96h1.92a.48.48 0 0 1 .48.48ZM.72 7.44a.48.48 0 0 0 .48-.48V5.04a.48.48 0 1 0-.96 0v1.92c0 .265.215.48.48.48Zm1.92 3.36H1.2V9.36a.48.48 0 1 0-.96 0v1.44c0 .53.43.96.96.96h1.44a.48.48 0 1 0 0-.96Zm9.12-9.6a.96.96 0 0 0-.96-.96H1.2a.952.952 0 0 0-.713.32.952.952 0 0 0-.247.64v1.44a.48.48 0 0 0 .96 0v-.761l8.922 8.921H9.36a.48.48 0 1 0 0 .96h1.44a.955.955 0 0 0 .714-.32.952.952 0 0 0 .246-.64V1.2Z"/></svg>