<svg xmlns="http://www.w3.org/2000/svg" width="19" height="19" fill="none"><path stroke="#fff" stroke-linecap="round" stroke-linejoin="round" d="M11.541 4.167a4.166 4.166 0 0 1 3.292 3.292M11.541.832a7.5 7.5 0 0 1 6.625 6.617m-.833 6.65v2.5a1.667 1.667 0 0 1-1.816 1.667 16.492 16.492 0 0 1-7.192-2.558 16.25 16.25 0 0 1-5-5A16.492 16.492 0 0 1 .767 3.483a1.667 1.667 0 0 1 1.658-1.816h2.5A1.667 1.667 0 0 1 6.592 3.1c.105.8.3 1.586.583 2.342A1.667 1.667 0 0 1 6.8 7.2L5.742 8.258a13.333 13.333 0 0 0 5 5L11.8 12.2a1.666 1.666 0 0 1 1.758-.375 10.7 10.7 0 0 0 2.342.584 1.666 1.666 0 0 1 1.433 1.691Z"/></svg>