<svg xmlns="http://www.w3.org/2000/svg" width="24" height="24" fill="none"><path fill="#fff" d="m15.96 17.64 1.68-1.68-4.44-4.44V6h-2.4v6.48l5.16 5.16ZM12 24c-1.66 0-3.22-.315-4.68-.945a12.118 12.118 0 0 1-3.81-2.565 12.118 12.118 0 0 1-2.565-3.81C.315 15.22 0 13.66 0 12c0-1.66.315-3.22.945-4.68.63-1.46 1.485-2.73 2.565-3.81A12.118 12.118 0 0 1 7.32.945C8.78.315 10.34 0 12 0c1.66 0 3.22.315 4.68.945 1.46.63 2.73 1.485 3.81 2.565a12.118 12.118 0 0 1 2.565 3.81c.63 1.46.945 3.02.945 4.68 0 1.66-.315 3.22-.945 4.68a12.118 12.118 0 0 1-2.565 3.81 12.118 12.118 0 0 1-3.81 2.565c-1.46.63-3.02.945-4.68.945Zm0-2.4c2.66 0 4.925-.935 6.795-2.805S21.6 14.66 21.6 12s-.935-4.925-2.805-6.795S14.66 2.4 12 2.4s-4.925.935-6.795 2.805S2.4 9.34 2.4 12s.935 4.925 2.805 6.795S9.34 21.6 12 21.6Z"/></svg>