<svg xmlns="http://www.w3.org/2000/svg" width="1338" height="1176" fill="none"><path fill="#fff" d="M0 0h1338v1176H0z"/><path fill="#4B8E69" d="m626.406 633.921-210.819-330C405.381 287.945 416.855 267 435.812 267h22.047l206.36 325.256h83.422l-23.791 40.827A23.998 23.998 0 0 1 703.114 645h-56.482a24.002 24.002 0 0 1-20.226-11.079Z"/><path fill="#4B8E69" d="M690.562 535.116 514.938 267h394.244c19.164 0 30.598 21.353 19.976 37.303l-10.283 15.441H615.922l35.125 57.14H883.75l-35.125 52.744H686.172l65.859 105.488h-61.469ZM198.671 820.322h-12.679L159 752.646h12.679l20.653 50.539 20.652-50.539h12.679l-26.992 67.676ZM237.209 752.646h11.334v67.676h-11.334v-67.676ZM269.054 752.646h11.334v33.015l30.738-33.015h14.409l-26.992 29.626 27.376 38.05h-13.448l-22.285-29.626-9.798 10.65v18.976h-11.334v-67.676ZM363.967 763.102v57.22h-11.335v-57.22h-20.364v-10.456h52.063v10.456h-20.364ZM444.555 768.621c-4.547-4.776-10.15-7.165-16.81-7.165-6.66 0-12.296 2.389-16.906 7.165-4.547 4.776-6.82 10.586-6.82 17.427 0 6.778 2.273 12.555 6.82 17.331 4.61 4.776 10.246 7.165 16.906 7.165 6.66 0 12.263-2.389 16.81-7.165 4.61-4.776 6.916-10.553 6.916-17.331 0-6.841-2.306-12.651-6.916-17.427Zm8.356 42.407c-6.788 6.648-15.176 9.972-25.166 9.972s-18.379-3.324-25.167-9.972c-6.788-6.713-10.182-15.04-10.182-24.98 0-10.004 3.394-18.331 10.182-24.979 6.788-6.713 15.177-10.069 25.167-10.069 9.99 0 18.378 3.356 25.166 10.069 6.788 6.648 10.182 14.975 10.182 24.979 0 9.94-3.394 18.267-10.182 24.98ZM532.911 774.624c0 11.166-4.834 18.202-14.504 21.106l17.578 24.592h-14.408l-16.042-22.752h-14.888v22.752h-11.335v-67.676h24.975c10.246 0 17.578 1.743 21.997 5.228 4.418 3.486 6.627 9.069 6.627 16.75Zm-28.144 12.586c6.404 0 10.758-1 13.064-3.001 2.305-2.001 3.458-5.196 3.458-9.585 0-4.454-1.185-7.488-3.555-9.101-2.369-1.678-6.595-2.517-12.679-2.517h-14.408v24.204h14.12ZM551.118 752.646h11.334v67.676h-11.334v-67.676ZM592.472 804.928l-6.724 15.394h-12.103l29.586-67.676h12.103l29.585 67.676h-12.103l-6.724-15.394h-33.62Zm29.009-10.553-12.199-27.884-12.199 27.884h24.398ZM695.791 763.296v18.589h29.777v10.553h-29.777v27.884h-11.335v-67.676h44.762l-.096 10.65h-33.331ZM797.948 774.624c0 11.166-4.835 18.202-14.504 21.106l17.578 24.592h-14.408l-16.042-22.752h-14.889v22.752h-11.334v-67.676h24.974c10.246 0 17.579 1.743 21.997 5.228 4.419 3.486 6.628 9.069 6.628 16.75Zm-28.144 12.586c6.403 0 10.758-1 13.063-3.001 2.306-2.001 3.458-5.196 3.458-9.585 0-4.454-1.184-7.488-3.554-9.101-2.369-1.678-6.596-2.517-12.679-2.517h-14.409v24.204h14.121ZM863.991 768.621c-4.547-4.776-10.15-7.165-16.81-7.165-6.66 0-12.295 2.389-16.906 7.165-4.547 4.776-6.82 10.586-6.82 17.427 0 6.778 2.273 12.555 6.82 17.331 4.611 4.776 10.246 7.165 16.906 7.165 6.66 0 12.263-2.389 16.81-7.165 4.61-4.776 6.916-10.553 6.916-17.331 0-6.841-2.306-12.651-6.916-17.427Zm8.357 42.407c-6.788 6.648-15.177 9.972-25.167 9.972-9.99 0-18.379-3.324-25.167-9.972-6.788-6.713-10.182-15.04-10.182-24.98 0-10.004 3.394-18.331 10.182-24.979 6.788-6.713 15.177-10.069 25.167-10.069 9.99 0 18.379 3.356 25.167 10.069 6.787 6.648 10.182 14.975 10.182 24.979 0 9.94-3.395 18.267-10.182 24.98ZM898.748 820.322v-67.676h11.335v29.336h33.331v-29.336h11.335v67.676h-11.335v-27.69h-33.331v27.69h-11.335ZM1025.67 752.646h11.34v67.676h-12.3l-38.037-49.377v49.377h-11.335v-67.676h11.335l38.997 50.539v-50.539ZM1104.72 752.646v10.747h-35.83v17.911h32.18v10.166h-32.18v18.105h36.98v10.747h-48.31v-67.676h47.16ZM1175.93 774.624c0 11.166-4.84 18.202-14.51 21.106l17.58 24.592h-14.41l-16.04-22.752h-14.89v22.752h-11.33v-67.676h24.97c10.25 0 17.58 1.743 22 5.228 4.42 3.486 6.63 9.069 6.63 16.75Zm-28.15 12.586c6.41 0 10.76-1 13.07-3.001 2.3-2.001 3.45-5.196 3.45-9.585 0-4.454-1.18-7.488-3.55-9.101-2.37-1.678-6.6-2.517-12.68-2.517h-14.41v24.204h14.12ZM427 906.284h7.091v-47.568H427v-1.835h17.342v1.835h-7.09v47.568h7.09v1.835H427v-1.835ZM454.738 906.284h7.091v-47.568h-7.091v-1.835H466.1l20.76 31.125h.256l21.016-31.125h11.106v1.835h-7.091v47.568h7.091v1.835h-17.343v-1.835h7.091v-46.393h-.256l-7.176 10.644-14.951 22.315-14.608-21.875-7.347-11.084h-.256v46.393h7.09v1.835h-16.744v-1.835ZM529.696 906.284h7.091v-47.568h-7.091v-1.835h11.362l20.76 31.125h.256l21.016-31.125h11.105v1.835h-7.09v47.568h7.09v1.835h-17.342v-1.835h7.091v-46.393h-.256l-7.176 10.644-14.951 22.315-14.608-21.875-7.347-11.084h-.256v46.393h7.09v1.835h-16.744v-1.835ZM630.71 907.091c6.834 0 12.16-1.908 15.975-5.725 3.816-3.866 5.724-9.421 5.724-16.664v-4.404c0-7.243-1.908-12.773-5.724-16.59-3.815-3.866-9.141-5.799-15.975-5.799s-12.159 1.933-15.975 5.799c-3.816 3.817-5.724 9.347-5.724 16.59v4.404c0 7.243 1.908 12.798 5.724 16.664 3.816 3.817 9.141 5.725 15.975 5.725Zm0 1.909c-7.916 0-14.096-2.251-18.538-6.753-4.443-4.503-6.664-11.085-6.664-19.747 0-8.662 2.221-15.244 6.664-19.747 4.442-4.502 10.622-6.753 18.538-6.753 7.917 0 14.096 2.251 18.538 6.753 4.443 4.503 6.664 11.085 6.664 19.747 0 8.662-2.221 15.244-6.664 19.747-4.442 4.502-10.621 6.753-18.538 6.753ZM667.181 906.284h7.091v-47.568h-7.091v-1.835h28.107c4.442 0 7.888 1.077 10.337 3.23 2.506 2.153 3.759 5.212 3.759 9.176 0 3.327-.855 5.921-2.563 7.781-1.709 1.86-3.93 3.132-6.664 3.817v.22c3.588.49 6.436 1.86 8.543 4.111 2.164 2.202 3.246 5.188 3.246 8.956 0 4.306-1.309 7.708-3.929 10.203-2.563 2.496-6.265 3.744-11.106 3.744h-29.73v-1.835Zm10.252 0h18.88c2.05 0 3.844-.269 5.382-.808 1.538-.587 2.819-1.345 3.844-2.275 1.025-.979 1.766-2.105 2.221-3.377.513-1.272.769-2.594.769-3.964v-3.303c0-1.37-.256-2.692-.769-3.964a8.076 8.076 0 0 0-2.221-3.304c-1.025-.978-2.306-1.737-3.844-2.275-1.538-.587-3.332-.881-5.382-.881h-18.88v24.151Zm0-25.986h17.513c1.879 0 3.503-.245 4.869-.734 1.367-.49 2.506-1.15 3.418-1.982a8.167 8.167 0 0 0 2.05-2.863c.456-1.126.683-2.3.683-3.524v-3.376a8.757 8.757 0 0 0-.683-3.451 8.005 8.005 0 0 0-2.05-2.936c-.912-.832-2.051-1.492-3.418-1.982-1.366-.489-2.99-.734-4.869-.734h-17.513v21.582ZM723.618 906.284h7.091v-47.568h-7.091v-1.835h17.343v1.835h-7.091v47.568h7.091v1.835h-17.343v-1.835ZM751.356 906.284h7.091v-47.568h-7.091v-1.835h17.343v1.835h-7.091v47.568h26.227v-9.543h2.819v11.378h-39.298v-1.835ZM800.702 906.284h7.091v-47.568h-7.091v-1.835h17.342v1.835h-7.09v47.568h7.09v1.835h-17.342v-1.835ZM828.44 906.284h7.091v-47.568h-7.091v-1.835h40.579v11.231H866.2v-9.396h-27.508v21.655h21.101v-6.093h2.563v14.021h-2.563v-6.093h-21.101v24.078h28.191v-9.543h2.82v11.378H828.44v-1.835ZM880.873 906.284h7.09v-47.568h-7.09v-1.835h11.191l34.941 47.127h.341v-45.292h-7.09v-1.835H937v1.835h-7.091v49.403h-3.331l-35.796-48.228h-.256v46.393h7.005v1.835h-16.658v-1.835Z"/></svg>