<svg id="logo_freigestellt" data-name="logo freigestellt" xmlns="http://www.w3.org/2000/svg" viewBox="0 0 1000 900"><defs><style>.cls-1{font-size:86.27px;font-family:Lato-Black, Lato;font-weight:800;letter-spacing:0.3em;}.cls-1,.cls-2{fill:#4b8e69;}.cls-2{fill-rule:evenodd;}</style></defs><title>logo-vf_immo_v_finalmente_svg_export</title><text class="cls-1" transform="translate(129.52 818.88)">IMMOBILIEN</text><path class="cls-2" d="M924,105.25l26-39.52H228.39L589.2,614l22.16-33.68a81.37,81.37,0,0,0,0-89.43L489.85,306.26H744a81.33,81.33,0,0,0,67.94-36.62l26-39.52H439.74l-58.07-88.25H856A81.35,81.35,0,0,0,924,105.25Z"/><path class="cls-2" d="M325,411.54l-8.56,4.23,1.73,2.64a7.57,7.57,0,0,0,1.77,1.93,5.3,5.3,0,0,0,2,.94,4.89,4.89,0,0,0,2.12,0,6.49,6.49,0,0,0,2.09-.91,3.54,3.54,0,0,0,1.75-2.58,5.42,5.42,0,0,0-1.12-3.5Z"/><path class="cls-2" d="M238.57,282.08a5.4,5.4,0,0,0-1.12-3.51l-1.8-2.73-8.56,4.23,1.74,2.64a7.74,7.74,0,0,0,1.77,1.93,5.41,5.41,0,0,0,2,.94,4.89,4.89,0,0,0,2.12,0,6.28,6.28,0,0,0,2.09-.91A3.54,3.54,0,0,0,238.57,282.08Z"/><path class="cls-2" d="M270.8,334.33l-11.17,1.61,4.66,7.08,7.3-7.53c.21-.23.45-.47.72-.75s.58-.56.91-.85c-.45.11-.89.2-1.3.27S271.13,334.29,270.8,334.33Z"/><path class="cls-2" d="M349.92,453.23a6.14,6.14,0,0,0,.19-2.73,6.92,6.92,0,0,0-1.11-2.73,8.43,8.43,0,0,0-2.74-2.68,8.32,8.32,0,0,0-3.56-1.16,11.23,11.23,0,0,0-4.12.41,15.69,15.69,0,0,0-4.39,2.07,11.07,11.07,0,0,0-2.57,2.27,7.61,7.61,0,0,0-1.41,2.57A6.1,6.1,0,0,0,330,454a6.94,6.94,0,0,0,1.11,2.72,8.66,8.66,0,0,0,2.75,2.71,8.44,8.44,0,0,0,3.55,1.18,11.23,11.23,0,0,0,4.11-.43,15.36,15.36,0,0,0,4.38-2.07,11.13,11.13,0,0,0,2.58-2.28A7.47,7.47,0,0,0,349.92,453.23Z"/><path class="cls-2" d="M216.76,251.06a6,6,0,0,0,.19-2.73,6.85,6.85,0,0,0-1.1-2.74,8.6,8.6,0,0,0-2.74-2.67,8.51,8.51,0,0,0-3.57-1.17,11.43,11.43,0,0,0-4.11.42,15.46,15.46,0,0,0-4.4,2.07,11.25,11.25,0,0,0-2.57,2.27,7.61,7.61,0,0,0-1.41,2.57,6,6,0,0,0-.18,2.72,7,7,0,0,0,1.1,2.72,8.69,8.69,0,0,0,2.76,2.71,8.38,8.38,0,0,0,3.55,1.17,10.93,10.93,0,0,0,4.1-.42,16,16,0,0,0,4.39-2.07,11.13,11.13,0,0,0,2.58-2.28A7.7,7.7,0,0,0,216.76,251.06Z"/><path class="cls-2" d="M185.73,104.68a86.28,86.28,0,0,0-72.14-38.95H50L407.06,608.45A86.25,86.25,0,0,0,479,647.3l62.74.1Zm-68.36,31.91,17.22-18.8,1.41,2.15a1,1,0,0,1,.19.68,1.1,1.1,0,0,1-.29.58l-12.48,13.16c-.26.28-.55.57-.87.89s-.67.63-1,.94c.49-.13,1-.24,1.43-.33s.9-.16,1.32-.22l19.4-2.67a1.6,1.6,0,0,1,.69.09,1.2,1.2,0,0,1,.61.48l1.42,2.16L119,139Zm18,27.42,22.31-11.08,1.79,2.71-22.31,11.08Zm31.5,23.52a3,3,0,0,1-.72-.32,2.08,2.08,0,0,1,0,.86,5.34,5.34,0,0,1-.3.91l-5.69,12.66-1.52-2.31a2.18,2.18,0,0,1-.25-.47,1.18,1.18,0,0,1-.08-.38.73.73,0,0,1,0-.33,3.43,3.43,0,0,1,.12-.33L163.2,187a1.76,1.76,0,0,0,.16-.84,2.34,2.34,0,0,0-.43-1l-.77-1.17L151.91,189l-1.77-2.69,22.31-11.07,1.78,2.69-9.83,4.87.62.95a2.75,2.75,0,0,0,.68.74,2.39,2.39,0,0,0,.89.32l12.54,2a2,2,0,0,1,1.57,1l1.51,2.29-14.36-2.36A6.23,6.23,0,0,1,166.92,187.53Zm7.28,35.35L194.07,213l-4-6.12,2.45-1.22,9.82,14.92-2.45,1.2-4-6.1L176,225.56Zm33.27,38.43a13.55,13.55,0,0,1-3.49-.08,12.59,12.59,0,0,1-3.25-1,12.22,12.22,0,0,1-2.87-1.85,12.63,12.63,0,0,1-2.34-2.68,10,10,0,0,1-1.58-3.87,9.13,9.13,0,0,1,.17-3.83,10.06,10.06,0,0,1,1.78-3.53,13.56,13.56,0,0,1,3.26-3,16.62,16.62,0,0,1,5.39-2.37,13.85,13.85,0,0,1,5.3-.24,12.25,12.25,0,0,1,4.76,1.79,12.41,12.41,0,0,1,3.72,3.71,9.79,9.79,0,0,1,1.57,3.88,9,9,0,0,1-.19,3.83,9.88,9.88,0,0,1-1.79,3.54,13.39,13.39,0,0,1-3.26,3,17.21,17.21,0,0,1-3.58,1.81A15.43,15.43,0,0,1,207.47,261.31Zm23.73,26.36a8.83,8.83,0,0,1-2.37-1.67,3,3,0,0,1-.36,1.34l-5.31,9.88-1.58-2.39a1.24,1.24,0,0,1-.08-1.39l4.87-8.79a1.44,1.44,0,0,0,.22-.76,1.9,1.9,0,0,0-.37-.87L225,281.11l-9.36,4.64-1.77-2.68L236.15,272l3.58,5.43a12.56,12.56,0,0,1,1.53,3.08,6.77,6.77,0,0,1,.32,2.64,4.75,4.75,0,0,1-.79,2.19,6.23,6.23,0,0,1-1.78,1.72,8.68,8.68,0,0,1-2.59,1.17,7.61,7.61,0,0,1-5.22-.55Zm3.55,27.14,22.31-11.07,1.78,2.71-22.31,11.07Zm24.83,37.71-1.36-2.07a.94.94,0,0,1,.1-1.26l4.3-4.45-5.54-8.42-6.6,1a1.53,1.53,0,0,1-.72-.09,1.21,1.21,0,0,1-.59-.48l-1.38-2.1,27.32-3.47,1.79,2.73Zm40.6,42.25-5.07-7.69-9.63,4.76-1.79-2.72L306,378.07l7.73,11.75L311.37,391l-5.95-9-7.95,3.93,5.1,7.74Zm23,29.35a8,8,0,0,1-2.57-.74,9.3,9.3,0,0,1-2.37-1.67,3.06,3.06,0,0,1-.36,1.34l-5.31,9.88-1.58-2.4a1.24,1.24,0,0,1-.08-1.39l4.87-8.78a1.47,1.47,0,0,0,.22-.77,2,2,0,0,0-.37-.87l-1.25-1.9L305,421.45l-1.76-2.68,22.31-11.07,3.58,5.43a12.11,12.11,0,0,1,1.52,3.07,6.63,6.63,0,0,1,.33,2.64,4.67,4.67,0,0,1-.79,2.19,6.17,6.17,0,0,1-1.79,1.73,8.25,8.25,0,0,1-2.58,1.16A7.67,7.67,0,0,1,323.15,424.12Zm17.48,39.36a13.12,13.12,0,0,1-3.49-.08,12.85,12.85,0,0,1-3.25-1,12.67,12.67,0,0,1-2.87-1.85,13,13,0,0,1-2.35-2.69A9.84,9.84,0,0,1,327.1,454a9,9,0,0,1,.17-3.83,9.89,9.89,0,0,1,1.78-3.53,13.27,13.27,0,0,1,3.25-3,16.74,16.74,0,0,1,5.39-2.38,14.11,14.11,0,0,1,5.31-.24,12.33,12.33,0,0,1,8.48,5.5,9.94,9.94,0,0,1,1.57,3.88,9,9,0,0,1-.19,3.84,10.21,10.21,0,0,1-1.79,3.54,13.61,13.61,0,0,1-3.27,3,17.2,17.2,0,0,1-3.57,1.82A15.4,15.4,0,0,1,340.63,463.48Zm14.62,34.3,10.2-5-6.64-10.07-10.18,5.05-1.8-2.72L369.16,474l1.79,2.71-10,5,6.64,10.08,10-5,1.79,2.71L357.05,500.5Zm23.6,35.84a1.71,1.71,0,0,1-.25-.62,1.13,1.13,0,0,1,.15-.64l9.94-19.29-.21.13-.28.15-.32.17-.27.14-16.51,8.18-1.56-2.37,22.33-11.05.91,1.38a1.62,1.62,0,0,1,.26.58,1.24,1.24,0,0,1-.16.59L383,530.27l.67-.36.6-.32,16.26-8.06,1.57,2.38L379.75,535Zm30.1,25.3-4.81-7.31-7.76,3.85,6,9.06L400,565.69l-7.75-11.77,22.32-11,7.74,11.74-2.38,1.18-6-9-7.53,3.72,4.82,7.31Zm30,27.29a6.41,6.41,0,0,1-1.79,1.72,8.46,8.46,0,0,1-2.58,1.16,7.45,7.45,0,0,1-2.65.2,8,8,0,0,1-2.58-.74,9.18,9.18,0,0,1-2.36-1.67,2.94,2.94,0,0,1-.37,1.34l-5.31,9.87-1.57-2.39a1.25,1.25,0,0,1-.09-1.38l4.87-8.79a1.36,1.36,0,0,0,.22-.77,1.87,1.87,0,0,0-.37-.87l-1.25-1.9-9.36,4.64L412,583.94l22.31-11.07,3.58,5.43a12.69,12.69,0,0,1,1.53,3.07,6.46,6.46,0,0,1,.32,2.64A4.74,4.74,0,0,1,439,586.21Z"/><path class="cls-2" d="M433.81,576.71l-8.56,4.23,1.74,2.64a7.62,7.62,0,0,0,1.77,1.94,5.24,5.24,0,0,0,2,.93,4.89,4.89,0,0,0,2.12,0,6.64,6.64,0,0,0,2.1-.91,3.58,3.58,0,0,0,1.74-2.57,5.4,5.4,0,0,0-1.12-3.51Z"/></svg>