<svg id="logo_freigestellt" data-name="logo freigestellt" xmlns="http://www.w3.org/2000/svg" viewBox="0 0 1000 700"><defs><style>.cls-1{fill:#fff;fill-rule:evenodd;}</style></defs><title>logo-vf_immo_v_finalmente_svg_export</title><path class="cls-1" d="M50,59.16h63.59a86.28,86.28,0,0,1,72.14,39l356,542.73L479,640.73a86.22,86.22,0,0,1-71.92-38.85Z"/><path class="cls-1" d="M924,98.69l26-39.53H228.39L589.2,607.44l22.16-33.68a81.35,81.35,0,0,0,0-89.42L489.85,299.7H744a81.32,81.32,0,0,0,67.94-36.63l26-39.52H439.74l-58.07-88.24H856A81.35,81.35,0,0,0,924,98.69Z"/></svg>